<?xml version="1.0" encoding="utf-8"?>
<svg viewBox="0 0 218.47755432128906 178.9766082763672" xmlns="http://www.w3.org/2000/svg">
  <defs>
    <linearGradient id="gradient-5" gradientUnits="userSpaceOnUse" x1="215.45" y1="82.298" x2="215.45" y2="152.95" gradientTransform="matrix(-0.633929, -0.773391, 0.670333, -0.549454, 265.807005, 341.504295)">
      <stop offset="0" style="stop-color: rgb(75, 75, 75);"/>
      <stop offset="1" style="stop-color: rgb(29, 29, 29);"/>
    </linearGradient>
    <radialGradient id="gradient-6" gradientUnits="userSpaceOnUse" cx="149.003" cy="192.993" r="76.087" gradientTransform="matrix(0.33689, 0, 0, 1.1945, 139.91434, -23.644349)">
      <stop offset="0" style="stop-color: rgb(52, 52, 52);"/>
      <stop offset="1" style="stop-color: rgb(11, 11, 11);"/>
    </radialGradient>
    <radialGradient id="gradient-2" gradientUnits="userSpaceOnUse" cx="268.843" cy="121.121" r="75.311" gradientTransform="matrix(0.277232, 0.019557, -0.057616, 0.83888, 128.734742, -3.778439)">
      <stop offset="0" style="stop-color: rgb(76, 76, 76);"/>
      <stop offset="1" style="stop-color: rgb(16, 16, 16);"/>
    </radialGradient>
  </defs>
  <g transform="matrix(1, 0, 0, 1, -106.366486, -80.518143)">
    <g style="" transform="matrix(0.834111, 0, 0, 0.834111, 36.24958, 31.469809)">
      <path style="fill: url(#gradient-6);" d="M 144.751 121.565 C 144.751 121.565 153.788 204.135 148.826 238.155 C 146.017 257.416 177.806 272.054 218.598 271.971 C 255.571 271.898 293.4 262.187 288.561 234.465 C 282.24 198.254 288.37 123.472 288.37 123.472"/>
      <path style="fill: rgb(73, 20, 7);" d="M 149.01 166.925 C 149.01 166.925 176.631 177.018 216.602 177.018 C 256.573 177.018 286.498 166.149 286.498 166.149 L 287.268 118.013 L 143.633 115.683"/>
      <path style="fill: rgb(216, 216, 216); mix-blend-mode: color-burn;" d="M 66.199 120.109 C 66.199 120.109 146.67 163.024 215.607 163.024 C 284.544 163.024 390.173 105.064 390.173 105.064"/>
    </g>
    <g>
      <path style="fill: rgb(85, 85, 85);" d="M 108.005 112.485 C 108.005 112.485 106.743 120.238 108.692 122.85 C 109.863 124.419 120.599 134.536 128.346 138.379 C 144.03 146.158 165.503 159.479 218.236 159.479 C 252.285 159.479 279.552 150.295 295.587 142.378 C 316.75 131.928 318.292 130.018 321.807 125.306 C 324.708 121.416 322.728 112.75 322.728 112.75 L 108.005 112.485 Z"/>
      <path d="M 322.981 112.966 C 322.981 121.924 312.264 130.373 293.581 138.281 C 274.56 146.332 255.441 155.281 215.45 155.279 C 175.459 155.277 158.405 147.599 139.337 138.902 C 122.217 131.093 107.919 120.387 107.919 112.966 C 107.919 105.545 123.659 94.182 142.755 89.203 C 162.309 84.105 180.89 81.521 215.45 81.522 C 250.01 81.523 268.368 82.635 287.959 89.404 C 306.294 95.74 322.981 104.008 322.981 112.966 Z" style="fill: url(#gradient-5);" transform="matrix(1, -0.000043, 0.000043, 1, -0.005093, 0.009268)"/>
    </g>
    <g transform="matrix(1, 0, 0, 1, 74.534164, -271.739136)" style="">
      <ellipse style="fill: rgb(86, 86, 86);" cx="177.634" cy="96.767" rx="62.489" ry="18.469" transform="matrix(1, -0.000001, 0, 1, -37.035797, 288.838135)"/>
      <ellipse style="fill: url(#gradient-2);" cx="180.103" cy="96.765" rx="62.488" ry="17.302" transform="matrix(1, -0.000077, 0.000078, 1.000001, -39.512341, 290.016302)"/>
    </g>
  </g>
</svg>